<?xml version="1.0" encoding="iso-8859-1"?>
<!-- Generator: Adobe Illustrator 19.0.0, SVG Export Plug-In . SVG Version: 6.00 Build 0)  -->
<svg version="1.1" id="Layer_1" xmlns="http://www.w3.org/2000/svg" xmlns:xlink="http://www.w3.org/1999/xlink" x="0px" y="0px"
	 viewBox="0 0 451.765 451.765" style="enable-background:new 0 0 451.765 451.765;" xml:space="preserve">
<circle style="fill:#1565C0;" cx="225.882" cy="240.941" r="210.824"/>
<path style="fill:#26A69A;" d="M436.706,240.941c0-79.736-44.28-149.128-109.591-184.945l-52.585,87.65l40.546,24.32l40.538-32.437
	l24.312,32.437h24.328v24.328l-81.099-8.109l-32.437,48.655l-16.188,89.193l32.444,40.553l6.505,70.121
	C386.168,399.435,436.706,326.121,436.706,240.941z"/>
<path style="fill:#42A5F5;" d="M225.882,30.118c-116.435,0-210.824,94.389-210.824,210.824c0,52.796,19.448,101.007,51.509,137.992
	L363.874,81.634C326.889,49.566,278.679,30.118,225.882,30.118z"/>
<path style="fill:#80CBC4;" d="M274.53,143.639l17.092,10.24l72.237-72.23c-11.272-9.773-23.544-18.432-36.736-25.66L274.53,143.639
	z"/>
<path style="fill:#26A69A;" d="M177.235,233.51l-56.764,24.328l-24.32-64.873h72.968l48.655-64.866v-24.32L123,56.937
	C77.862,82.236,43,123.648,26.18,173.395l37.527,84.45l48.655,40.538l64.873,121.63h24.32l40.546-121.63L177.235,233.51z"/>
<path style="fill:#EF5350;" d="M406.588,240.941c0,33.265-60.235,120.471-60.235,120.471s-60.235-87.206-60.235-120.471
	s26.97-60.235,60.235-60.235S406.588,207.676,406.588,240.941z"/>
<circle style="fill:#FFFFFF;" cx="346.353" cy="240.941" r="22.588"/>
<path style="fill:#80CBC4;" d="M177.235,233.51l-56.764,24.328l-24.32-64.873h72.968l48.655-64.866v-24.32L123,56.937
	C77.862,82.236,43,123.648,26.18,173.395l37.527,84.45l48.655,40.538l12.092,22.679l70.152-70.152L177.235,233.51z"/>
<path style="fill:#EF5350;" d="M165.647,60.235c0,33.265-60.235,120.471-60.235,120.471S45.176,93.5,45.176,60.235
	S72.147,0,105.412,0S165.647,26.97,165.647,60.235z"/>
<circle style="fill:#FFFFFF;" cx="105.412" cy="60.235" r="22.588"/>
<g>
</g>
<g>
</g>
<g>
</g>
<g>
</g>
<g>
</g>
<g>
</g>
<g>
</g>
<g>
</g>
<g>
</g>
<g>
</g>
<g>
</g>
<g>
</g>
<g>
</g>
<g>
</g>
<g>
</g>
</svg>
