<?xml version="1.0" encoding="iso-8859-1"?>
<!-- Generator: Adobe Illustrator 19.0.0, SVG Export Plug-In . SVG Version: 6.00 Build 0)  -->
<svg version="1.1" id="Layer_1" xmlns="http://www.w3.org/2000/svg" xmlns:xlink="http://www.w3.org/1999/xlink" x="0px" y="0px"
	 viewBox="0 0 512.045 512.045" style="enable-background:new 0 0 512.045 512.045;" xml:space="preserve">
<g transform="translate(-1 -1)">
	<g>
		<g>
			<path d="M359.873,18.089h144.614c4.713,0,8.533-3.821,8.533-8.533s-3.82-8.533-8.533-8.533H9.553
				c-4.713,0-8.533,3.82-8.533,8.533s3.82,8.533,8.533,8.533h144.614l-25.136,485.959c-0.243,4.707,3.375,8.719,8.081,8.963
				c4.707,0.243,8.719-3.375,8.963-8.081l25.181-486.841h77.23v42.667c0,4.713,3.82,8.533,8.533,8.533s8.533-3.821,8.533-8.533
				V18.089h77.23l25.181,486.841c0.243,4.707,4.256,8.325,8.963,8.081c4.707-0.243,8.325-4.256,8.081-8.963L359.873,18.089z"/>
			<path d="M257.02,444.756c-4.713,0-8.533,3.82-8.533,8.533v51.2c0,4.713,3.82,8.533,8.533,8.533s8.533-3.82,8.533-8.533v-51.2
				C265.553,448.577,261.733,444.756,257.02,444.756z"/>
			<path d="M257.02,333.823c-4.713,0-8.533,3.82-8.533,8.533v51.2c0,4.713,3.82,8.533,8.533,8.533s8.533-3.82,8.533-8.533v-51.2
				C265.553,337.643,261.733,333.823,257.02,333.823z"/>
			<path d="M257.02,222.889c-4.713,0-8.533,3.82-8.533,8.533v51.2c0,4.713,3.82,8.533,8.533,8.533s8.533-3.82,8.533-8.533v-51.2
				C265.553,226.71,261.733,222.889,257.02,222.889z"/>
			<path d="M257.02,111.956c-4.713,0-8.533,3.82-8.533,8.533v51.2c0,4.713,3.82,8.533,8.533,8.533s8.533-3.82,8.533-8.533v-51.2
				C265.553,115.777,261.733,111.956,257.02,111.956z"/>
			<path d="M69.915,68.893C60.674,58.044,43.953,58.044,34.7,68.891L13.714,93.512c-26.421,31.008-9.361,80.09,29.972,86.07v34.773
				c0,4.713,3.82,8.533,8.533,8.533s8.533-3.82,8.533-8.533V179.57c38.559-6.138,56.776-54.807,29.985-86.252L69.915,68.893z
				 M60.753,162.131v-24.575c0-4.713-3.82-8.533-8.533-8.533s-8.533,3.82-8.533,8.533v24.638
				c-24.084-5.711-34.26-37.334-16.982-57.612l20.983-24.618c2.436-2.855,6.809-2.855,9.239-0.002l20.824,24.425
				C95.194,124.863,84.455,156.105,60.753,162.131z"/>
			<path d="M69.915,333.426c-9.241-10.849-25.962-10.849-35.215-0.002l-20.986,24.621c-26.421,31.008-9.361,80.09,29.972,86.07
				v34.773c0,4.713,3.82,8.533,8.533,8.533s8.533-3.82,8.533-8.533v-34.786c38.559-6.137,56.776-54.807,29.985-86.252
				L69.915,333.426z M60.753,426.664v-24.575c0-4.713-3.82-8.533-8.533-8.533s-8.533,3.82-8.533,8.533v24.638
				c-24.084-5.711-34.26-37.334-16.982-57.612l20.983-24.618c2.436-2.855,6.809-2.855,9.239-0.002l20.824,24.425
				C95.194,389.397,84.455,420.639,60.753,426.664z"/>
			<path d="M461.82,222.889c4.713,0,8.533-3.82,8.533-8.533V179.57c38.559-6.138,56.776-54.807,29.985-86.252l-20.823-24.425
				c-9.241-10.849-25.962-10.849-35.215-0.002l-20.986,24.621c-26.421,31.008-9.361,80.09,29.972,86.07v34.773
				C453.286,219.069,457.107,222.889,461.82,222.889z M436.304,104.582l20.983-24.618c2.436-2.855,6.809-2.855,9.239-0.002
				l20.824,24.425c17.445,20.476,6.706,51.718-16.996,57.743v-24.575c0-4.713-3.82-8.533-8.533-8.533s-8.533,3.82-8.533,8.533
				v24.638C429.202,156.483,419.027,124.86,436.304,104.582z"/>
			<path d="M479.515,333.426c-9.241-10.849-25.962-10.849-35.215-0.002l-20.986,24.621c-26.421,31.008-9.361,80.09,29.972,86.07
				v34.773c0,4.713,3.821,8.533,8.533,8.533s8.533-3.82,8.533-8.533v-34.786c38.559-6.137,56.776-54.807,29.985-86.252
				L479.515,333.426z M470.353,426.664v-24.575c0-4.713-3.82-8.533-8.533-8.533s-8.533,3.82-8.533,8.533v24.638
				c-24.084-5.711-34.26-37.334-16.982-57.612l20.983-24.618c2.436-2.855,6.809-2.855,9.239-0.002l20.824,24.425
				C504.794,389.397,494.055,420.639,470.353,426.664z"/>
		</g>
	</g>
</g>
<g>
</g>
<g>
</g>
<g>
</g>
<g>
</g>
<g>
</g>
<g>
</g>
<g>
</g>
<g>
</g>
<g>
</g>
<g>
</g>
<g>
</g>
<g>
</g>
<g>
</g>
<g>
</g>
<g>
</g>
</svg>
